<svg xmlns="http://www.w3.org/2000/svg" width="15" height="12"><defs><filter id="a" width="35" height="32" x="-10" y="-10" filterUnits="userSpaceOnUse"><feOffset dy="1" in="SourceGraphic" result="FeOffset1048Out"/><feGaussianBlur in="FeOffset1048Out" result="FeGaussianBlur1049Out" stdDeviation="0 0"/></filter><filter id="c" width="200%" height="200%" x="-50%" y="-50%"><feGaussianBlur in="SourceGraphic" result="FeGaussianBlur1054Out" stdDeviation="0 0"/></filter><mask id="b" width="2" height="2" x="-1" y="-1"><path fill="#fff" d="M0 0h15v11H0z"/><path d="M14-.008s.967.02.967 1.02l-5.999 5.42s-1.342 1.094-2.998 0L.043.98s-.017-.988.958-.988zM0 2l3.018 2.98L.986 9.76l2.92-3.734L5.78 7.531s2.16 1.044 3.334.031l1.865-1.56 3.03 4.005-2.052-4.993L15 2v8.063s-.062.937-1.094.937H1.031S0 10.906 0 10z"/></mask><mask id="d"><path fill="#fff" d="M14-.008s.967.02.967 1.02l-5.999 5.42s-1.342 1.094-2.998 0L.043.98s-.017-.988.958-.988zM0 2l3.018 2.98L.986 9.76l2.92-3.734L5.78 7.531s2.16 1.044 3.334.031l1.865-1.56 3.03 4.005-2.052-4.993L15 2v8.063s-.062.937-1.094.937H1.031S0 10.906 0 10z"/></mask></defs><g filter="url(#a)"><path fill="none" d="M14-.008s.967.02.967 1.02l-5.999 5.42s-1.342 1.094-2.998 0L.043.98s-.017-.988.958-.988zM0 2l3.018 2.98L.986 9.76l2.92-3.734L5.78 7.531s2.16 1.044 3.334.031l1.865-1.56 3.03 4.005-2.052-4.993L15 2v8.063s-.062.937-1.094.937H1.031S0 10.906 0 10z" mask="url(&quot;#b&quot;)"/><path fill-opacity=".39" d="M14-.008s.967.02.967 1.02l-5.999 5.42s-1.342 1.094-2.998 0L.043.98s-.017-.988.958-.988zM0 2l3.018 2.98L.986 9.76l2.92-3.734L5.78 7.531s2.16 1.044 3.334.031l1.865-1.56 3.03 4.005-2.052-4.993L15 2v8.063s-.062.937-1.094.937H1.031S0 10.906 0 10z"/></g><path fill="#ff84bc" d="M14-.008s.967.02.967 1.02l-5.999 5.42s-1.342 1.094-2.998 0L.043.98s-.017-.988.958-.988zM0 2l3.018 2.98L.986 9.76l2.92-3.734L5.78 7.531s2.16 1.044 3.334.031l1.865-1.56 3.03 4.005-2.052-4.993L15 2v8.063s-.062.937-1.094.937H1.031S0 10.906 0 10z"/><path fill="#fff" fill-opacity=".03" d="M0 12v-.987c.01.894 1.031.987 1.031.987h12.875c1.021 0 1.093-.919 1.094-.937V12zM0-1h15v4l-3.042 3.014 2.052 4.993-3.03-4.004-1.865 1.56C7.94 9.574 5.78 8.53 5.78 8.53L3.906 7.026l-2.92 3.735 2.032-4.782L0 3zM1 .992c-.974 0-.957.988-.957.988L5.97 7.432c1.656 1.094 2.998 0 2.998 0l6-5.42c0-1-.969-1.02-.969-1.02zM0 11v.013V3zm15 .063V3v8.063z" filter="url(#c)" mask="url(&quot;#d&quot;)"/></svg>