<svg xmlns="http://www.w3.org/2000/svg" width="12" height="17"><defs><filter id="a" width="33" height="37" x="-11" y="-10" filterUnits="userSpaceOnUse"><feOffset dy="1" in="SourceGraphic" result="FeOffset1073Out"/><feGaussianBlur in="FeOffset1073Out" result="FeGaussianBlur1074Out" stdDeviation="0 0"/></filter><filter id="c" width="200%" height="200%" x="-50%" y="-50%"><feGaussianBlur in="SourceGraphic" result="FeGaussianBlur1079Out" stdDeviation="0 0"/></filter><mask id="b" width="2" height="2" x="-1" y="-1"><path fill="#fff" d="M-1 0h13v16H-1z"/><path d="M6.017.645l4.936 2.85c.787.454 1.04 1.487.587 2.274l-1.417 2.385c-.788 1.365-2.244.475-2.244.475l-1.093-.614-3.891 6.706-2.53 1.091c-.77-.445-.367-2.11-.367-2.11l1.552-.656-.112-1.874 1.212.067.268-.476-.643-1.008 1.277-.105-.365-1.395 1.012-1.734-1.18-.681c-1.365-.788-.621-2.146-.621-2.146l1.357-2.42C4.21.488 5.231.191 6.017.645zm-1.306.974a.5.5 0 00.183.683l5.196 3a.5.5 0 00.5-.866l-5.196-3a.5.5 0 00-.683.183z"/></mask><mask id="d"><path fill="#fff" d="M6.017.645l4.936 2.85c.787.454 1.04 1.487.587 2.274l-1.417 2.385c-.788 1.365-2.244.475-2.244.475l-1.093-.614-3.891 6.706-2.53 1.091c-.77-.445-.367-2.11-.367-2.11l1.552-.656-.112-1.874 1.212.067.268-.476-.643-1.008 1.277-.105-.365-1.395 1.012-1.734-1.18-.681c-1.365-.788-.621-2.146-.621-2.146l1.357-2.42C4.21.488 5.231.191 6.017.645zm-1.306.974a.5.5 0 00.183.683l5.196 3a.5.5 0 00.5-.866l-5.196-3a.5.5 0 00-.683.183z"/></mask></defs><g filter="url(#a)"><path fill="none" d="M6.017.645l4.936 2.85c.787.454 1.04 1.487.587 2.274l-1.417 2.385c-.788 1.365-2.244.475-2.244.475l-1.093-.614-3.891 6.706-2.53 1.091c-.77-.445-.367-2.11-.367-2.11l1.552-.656-.112-1.874 1.212.067.268-.476-.643-1.008 1.277-.105-.365-1.395 1.012-1.734-1.18-.681c-1.365-.788-.621-2.146-.621-2.146l1.357-2.42C4.21.488 5.231.191 6.017.645zm-1.306.974a.5.5 0 00.183.683l5.196 3a.5.5 0 00.5-.866l-5.196-3a.5.5 0 00-.683.183z" mask="url(&quot;#b&quot;)"/><path fill-opacity=".39" d="M6.017.645l4.936 2.85c.787.454 1.04 1.487.587 2.274l-1.417 2.385c-.788 1.365-2.244.475-2.244.475l-1.093-.614-3.891 6.706-2.53 1.091c-.77-.445-.367-2.11-.367-2.11l1.552-.656-.112-1.874 1.212.067.268-.476-.643-1.008 1.277-.105-.365-1.395 1.012-1.734-1.18-.681c-1.365-.788-.621-2.146-.621-2.146l1.357-2.42C4.21.488 5.231.191 6.017.645zm-1.306.974a.5.5 0 00.183.683l5.196 3a.5.5 0 00.5-.866l-5.196-3a.5.5 0 00-.683.183z"/></g><path fill="#ff84bc" d="M6.017.645l4.936 2.85c.787.454 1.04 1.487.587 2.274l-1.417 2.385c-.788 1.365-2.244.475-2.244.475l-1.093-.614-3.891 6.706-2.53 1.091c-.77-.445-.367-2.11-.367-2.11l1.552-.656-.112-1.874 1.212.067.268-.476-.643-1.008 1.277-.105-.365-1.395 1.012-1.734-1.18-.681c-1.365-.788-.621-2.146-.621-2.146l1.357-2.42C4.21.488 5.231.191 6.017.645zm-1.306.974a.5.5 0 00.183.683l5.196 3a.5.5 0 00.5-.866l-5.196-3a.5.5 0 00-.683.183z"/><path fill="#fff" fill-opacity=".03" d="M-1 17V-1h13v18zM6.017 1.645c-.786-.454-1.808-.157-2.262.63l-1.357 2.42s-.744 1.357.62 2.145l1.18.681-1.011 1.734.365 1.395-1.277.105.643 1.008-.268.476-1.212-.067.112 1.874-1.552.655s-.404 1.666.368 2.111l2.529-1.091 3.891-6.706 1.093.614s1.456.89 2.244-.475L11.54 6.77c.454-.787.2-1.82-.587-2.274l-4.936-2.85zm-.623.79l5.196 3a.5.5 0 11-.5.867l-5.196-3a.5.5 0 11.5-.866z" filter="url(#c)" mask="url(&quot;#d&quot;)"/></svg>