<svg xmlns="http://www.w3.org/2000/svg" width="15" height="16"><defs><filter id="a" width="35" height="36" x="-10" y="-10" filterUnits="userSpaceOnUse"><feOffset dy="1" in="SourceGraphic" result="FeOffset1023Out"/><feGaussianBlur in="FeOffset1023Out" result="FeGaussianBlur1024Out" stdDeviation="0 0"/></filter><filter id="c" width="200%" height="200%" x="-50%" y="-50%"><feGaussianBlur in="SourceGraphic" result="FeGaussianBlur1029Out" stdDeviation="0 0"/></filter><mask id="b" width="2" height="2" x="-1" y="-1"><path fill="#fff" d="M0 0h15v15H0z"/><path d="M6.797 1.025c-.52 0-.066.16-.346.2-.28.04.37-.04-.471.12S4.967 2.586 4.927 2.987c-.04.4-.05.525-.023 1.126.08.36-.326.36-.326.36-.503-.032-.59 1.538-.59 1.538.073.387-.025.58.72.879.356 1.012 1.26 1.523 1.26 1.523s.045.65.059 1.112c-.076-.038-.132 1.181-2.45 1.523-2.317.342-2.76 1.093-3.197 1.51-.437.418-.404 2.347-.404 2.347H14.9s-.095-1.929-.532-2.346c-.437-.418-.913-1.17-3.23-1.51-2.317-.343-2.156-1.529-2.172-1.601.004-.182.085-.955.085-.955s.746-.62 1.101-1.633c.56-.353.772-.402.865-.81 0 0 .251-1.537-.35-1.537 0 0-.687.04-.607-.32.08-.36.053-.486.013-.886s.202-1.545-.639-1.705c-.574-.107-.39.055-.67.015-.281-.04-.615-.766-1.135-.766z"/></mask><mask id="d"><path fill="#fff" d="M6.797 1.025c-.52 0-.066.16-.346.2-.28.04.37-.04-.471.12S4.967 2.586 4.927 2.987c-.04.4-.05.525-.023 1.126.08.36-.326.36-.326.36-.503-.032-.59 1.538-.59 1.538.073.387-.025.58.72.879.356 1.012 1.26 1.523 1.26 1.523s.045.65.059 1.112c-.076-.038-.132 1.181-2.45 1.523-2.317.342-2.76 1.093-3.197 1.51-.437.418-.404 2.347-.404 2.347H14.9s-.095-1.929-.532-2.346c-.437-.418-.913-1.17-3.23-1.51-2.317-.343-2.156-1.529-2.172-1.601.004-.182.085-.955.085-.955s.746-.62 1.101-1.633c.56-.353.772-.402.865-.81 0 0 .251-1.537-.35-1.537 0 0-.687.04-.607-.32.08-.36.053-.486.013-.886s.202-1.545-.639-1.705c-.574-.107-.39.055-.67.015-.281-.04-.615-.766-1.135-.766z"/></mask></defs><g filter="url(#a)"><path fill="none" d="M6.797 1.025c-.52 0-.066.16-.346.2-.28.04.37-.04-.471.12S4.967 2.586 4.927 2.987c-.04.4-.05.525-.023 1.126.08.36-.326.36-.326.36-.503-.032-.59 1.538-.59 1.538.073.387-.025.58.72.879.356 1.012 1.26 1.523 1.26 1.523s.045.65.059 1.112c-.076-.038-.132 1.181-2.45 1.523-2.317.342-2.76 1.093-3.197 1.51-.437.418-.404 2.347-.404 2.347H14.9s-.095-1.929-.532-2.346c-.437-.418-.913-1.17-3.23-1.51-2.317-.343-2.156-1.529-2.172-1.601.004-.182.085-.955.085-.955s.746-.62 1.101-1.633c.56-.353.772-.402.865-.81 0 0 .251-1.537-.35-1.537 0 0-.687.04-.607-.32.08-.36.053-.486.013-.886s.202-1.545-.639-1.705c-.574-.107-.39.055-.67.015-.281-.04-.615-.766-1.135-.766z" mask="url(&quot;#b&quot;)"/><path fill-opacity=".39" d="M6.797 1.025c-.52 0-.066.16-.346.2-.28.04.37-.04-.471.12S4.967 2.586 4.927 2.987c-.04.4-.05.525-.023 1.126.08.36-.326.36-.326.36-.503-.032-.59 1.538-.59 1.538.073.387-.025.58.72.879.356 1.012 1.26 1.523 1.26 1.523s.045.65.059 1.112c-.076-.038-.132 1.181-2.45 1.523-2.317.342-2.76 1.093-3.197 1.51-.437.418-.404 2.347-.404 2.347H14.9s-.095-1.929-.532-2.346c-.437-.418-.913-1.17-3.23-1.51-2.317-.343-2.156-1.529-2.172-1.601.004-.182.085-.955.085-.955s.746-.62 1.101-1.633c.56-.353.772-.402.865-.81 0 0 .251-1.537-.35-1.537 0 0-.687.04-.607-.32.08-.36.053-.486.013-.886s.202-1.545-.639-1.705c-.574-.107-.39.055-.67.015-.281-.04-.615-.766-1.135-.766z"/></g><path fill="#ff84bc" d="M6.797 1.025c-.52 0-.066.16-.346.2-.28.04.37-.04-.471.12S4.967 2.586 4.927 2.987c-.04.4-.05.525-.023 1.126.08.36-.326.36-.326.36-.503-.032-.59 1.538-.59 1.538.073.387-.025.58.72.879.356 1.012 1.26 1.523 1.26 1.523s.045.65.059 1.112c-.076-.038-.132 1.181-2.45 1.523-2.317.342-2.76 1.093-3.197 1.51-.437.418-.404 2.347-.404 2.347H14.9s-.095-1.929-.532-2.346c-.437-.418-.913-1.17-3.23-1.51-2.317-.343-2.156-1.529-2.172-1.601.004-.182.085-.955.085-.955s.746-.62 1.101-1.633c.56-.353.772-.402.865-.81 0 0 .251-1.537-.35-1.537 0 0-.687.04-.607-.32.08-.36.053-.486.013-.886s.202-1.545-.639-1.705c-.574-.107-.39.055-.67.015-.281-.04-.615-.766-1.135-.766z"/><path fill="#fff" fill-opacity=".03" d="M0 16v-.095h14.9s-.096-1.929-.533-2.346c-.437-.418-.913-1.17-3.23-1.51-2.317-.343-2.156-1.529-2.172-1.601.004-.182.085-.955.085-.955s.746-.62 1.101-1.633c.56-.353.772-.402.865-.81 0 0 .251-1.537-.35-1.537 0 0-.687.04-.607-.32.08-.36.053-.486.013-.886s.202-1.545-.639-1.705c-.574-.107-.39.055-.67.015-.281-.04-.615-.766-1.135-.766l-.831.174c-.52 0-.066.16-.346.2-.28.04.37-.04-.471.12S4.967 3.586 4.927 3.987c-.04.4-.05.525-.023 1.126.08.36-.326.36-.326.36-.503-.032-.59 1.538-.59 1.538.073.387-.025.58.72.879.356 1.012 1.26 1.523 1.26 1.523s.045.65.059 1.112c-.076-.038-.132 1.181-2.45 1.523-2.317.342-2.76 1.093-3.197 1.51-.244.234-.342.939-.38 1.515V-1h15v17zm-.024-.095H0v-.832c-.03.456-.024.832-.024.832z" filter="url(#c)" mask="url(&quot;#d&quot;)"/></svg>